<svg width="51" height="51" viewBox="0 0 51 51" fill="none" xmlns="http://www.w3.org/2000/svg">
<path d="M39.6469 39.6667H39.6667M39.6469 39.6667C38.3496 40.9531 35.9985 40.6327 34.3498 40.6327C32.326 40.6327 31.3515 41.0285 29.9071 42.4729C28.6773 43.7029 27.0285 45.9167 25.0833 45.9167C23.1381 45.9167 21.4894 43.7029 20.2595 42.4729C18.8152 41.0285 17.8406 40.6327 15.8168 40.6327C14.1681 40.6327 11.817 40.9531 10.5198 39.6667C9.2121 38.37 9.53392 36.0092 9.53392 34.3498C9.53392 32.2529 9.07533 31.2888 7.58204 29.7954C5.36071 27.5742 4.25004 26.4633 4.25 25.0833C4.25002 23.7031 5.36067 22.5925 7.58198 20.3712C8.915 19.0382 9.53392 17.7173 9.53392 15.8168C9.53392 14.168 9.21352 11.817 10.5 10.5197C11.7967 9.21204 14.1575 9.53388 15.8168 9.53388C17.7172 9.53388 19.0382 8.915 20.3711 7.58202C22.5925 5.36067 23.7031 4.25 25.0833 4.25C26.4635 4.25 27.5742 5.36067 29.7954 7.58202C31.1281 8.91473 32.449 9.53388 34.3498 9.53388C35.9985 9.53388 38.3498 9.21348 39.6471 10.5C40.9546 11.7967 40.6327 14.1575 40.6327 15.8168C40.6327 17.9137 41.0915 18.8779 42.5846 20.3712C44.806 22.5925 45.9167 23.7031 45.9167 25.0833C45.9167 26.4633 44.806 27.5742 42.5846 29.7954C41.0913 31.2888 40.6327 32.2529 40.6327 34.3498C40.6327 36.0092 40.9546 38.37 39.6469 39.6667Z" stroke="#0000FF" stroke-width="8.5"/>
<path d="M18.8333 26.9435L22.5833 30.2917L31.3333 19.875" stroke="#0000FF" stroke-width="8.5" stroke-linecap="round" stroke-linejoin="round"/>
</svg>
